<svg id="Layer_2" height="512" viewBox="0 0 512 512" width="512" xmlns="http://www.w3.org/2000/svg" xmlns:xlink="http://www.w3.org/1999/xlink" data-name="Layer 2"><linearGradient id="linear-gradient" gradientUnits="userSpaceOnUse" x1="144.63" x2="455.86" y1="169.04" y2="480.27"><stop offset="0" stop-opacity=".5"/><stop offset="1" stop-opacity="0"/></linearGradient><g id="Icon"><g id="_33" data-name="33"><rect fill="#1273eb" height="512" rx="150" width="512"/><path d="m343.72 159.02-196.84 7.77 67.56 67.56-34.31 114.35-33.25 31.71 131.59 131.59h83.53c82.84 0 150-67.16 150-150v-34.71l-168.28-168.28z" fill="url(#linear-gradient)"/><path d="m146.88 380.41v-35.03l25.8-5.47v-167.65l-25.8-5.47v-35.21h121c19.82 0 37.03 3.48 51.61 10.42 14.58 6.95 25.83 16.61 33.75 28.97s11.88 26.75 11.88 43.15-3.96 30.76-11.88 43.07c-7.92 12.3-19.17 21.88-33.75 28.71-14.59 6.84-31.79 10.25-51.61 10.25h-35.21v43.75l25.81 5.47v35.03h-111.6zm85.79-130.22h35.21c12.19 0 21.45-3.33 27.77-10s9.48-15.24 9.48-25.72-3.16-19.71-9.48-26.66-15.58-10.42-27.77-10.42h-35.21z" fill="#fff"/></g></g></svg>